<?xml version="1.0" encoding="utf-8"?>
<!-- Generator: Adobe Illustrator 25.2.1, SVG Export Plug-In . SVG Version: 6.00 Build 0)  -->
<svg version="1.1" id="Capa_1" xmlns="http://www.w3.org/2000/svg" xmlns:xlink="http://www.w3.org/1999/xlink" x="0px" y="0px"
	 viewBox="0 0 50 50" style="enable-background:new 0 0 50 50;" xml:space="preserve">
<style type="text/css">
	.st0{fill:#FFFFFF;}
</style>
<g id="XMLID_00000052806940456017827630000004577162132330285219_">
	<path id="XMLID_00000041988594052149938260000008634696042682865585_" class="st0" d="M1278.17,212.78
		c-4.98,0-9.61,1.54-13.49,4.02h26.98C1287.78,214.33,1283.15,212.78,1278.17,212.78z"/>
	<path id="XMLID_00000057143941968746589550000005094406979887171992_" class="st0" d="M1298.51,223.63v27.07
		c2.48-3.88,4.05-8.53,4.05-13.54S1300.99,227.52,1298.51,223.63z"/>
	<path id="XMLID_00000147904530849247200820000008807496191060836502_" class="st0" d="M1278.14,216.61
		c-10.51,0-19.2,7.88-20.43,18.06v-11.04c-2.7,3.88-4.05,8.53-4.05,13.54s1.35,9.65,4.05,13.54v-11.08c0.58,4.7,2.78,8.92,5.86,12.1
		v-29.06h13.73c-7.64,0.46-13.73,6.79-13.73,14.54c0,7.72,6.04,14.03,13.63,14.54h-13.5c3.29,3.19,7.68,5.4,12.56,5.86h-11.67
		c3.89,2.7,8.56,4.08,13.58,4.08s9.69-1.38,13.58-4.08h-11.67c4.88-0.46,9.27-2.67,12.56-5.86h-13.48
		c7.02-0.47,12.68-5.9,13.49-12.82v12.75c3.83-3.72,6.03-8.84,6.03-14.5C1298.68,225.81,1289.5,216.61,1278.14,216.61z
		 M1279.06,222.66h13.59v12.83C1291.83,228.54,1286.12,223.09,1279.06,222.66z"/>
	<path id="XMLID_00000046310286334186527450000007118587687796400536_" class="st0" d="M1292.74,251.78v-0.11
		c-0.04,0.04-0.07,0.07-0.11,0.11H1292.74z"/>
	<path id="XMLID_00000072243394964487340140000007780031166765444260_" class="st0" d="M1263.64,251.78h0.06
		c-0.02-0.02-0.04-0.04-0.06-0.06V251.78z"/>
</g>
<g id="XMLID_1_">
	<path id="XMLID_8_" class="st0" d="M25.06,0.55c-4.98,0-9.61,1.54-13.49,4.02h26.98C34.67,2.09,30.04,0.55,25.06,0.55z"/>
	<path id="XMLID_7_" class="st0" d="M45.4,11.4v27.07c2.48-3.88,4.05-8.53,4.05-13.54S47.88,15.28,45.4,11.4z"/>
	<path id="XMLID_4_" class="st0" d="M25.04,4.37c-10.51,0-19.2,7.88-20.43,18.06V11.4c-2.7,3.88-4.05,8.53-4.05,13.54
		S1.9,34.59,4.6,38.47V27.39c0.58,4.7,2.78,8.92,5.86,12.1V10.43h13.73c-7.64,0.46-13.73,6.79-13.73,14.54
		c0,7.72,6.04,14.03,13.63,14.54h-13.5c3.29,3.19,7.68,5.4,12.56,5.86H11.48c3.89,2.7,8.56,4.08,13.58,4.08
		c5.02,0,9.69-1.38,13.58-4.08H26.97c4.88-0.46,9.27-2.67,12.56-5.86H26.05c7.02-0.47,12.68-5.9,13.49-12.82v12.75
		c3.83-3.72,6.03-8.84,6.03-14.5C45.57,13.58,36.39,4.37,25.04,4.37z M25.95,10.43h13.59v12.83C38.72,16.31,33.02,10.85,25.95,10.43
		z"/>
	<path id="XMLID_3_" class="st0" d="M39.63,39.54v-0.11c-0.04,0.04-0.07,0.07-0.11,0.11H39.63z"/>
	<path id="XMLID_2_" class="st0" d="M10.54,39.54h0.06c-0.02-0.02-0.04-0.04-0.06-0.06V39.54z"/>
</g>
</svg>
