<?xml version="1.0" encoding="utf-8"?>
<!-- Generator: Adobe Illustrator 27.1.1, SVG Export Plug-In . SVG Version: 6.00 Build 0)  -->
<svg version="1.1" id="Layer_1" xmlns="http://www.w3.org/2000/svg" xmlns:xlink="http://www.w3.org/1999/xlink" x="0px" y="0px"
	 viewBox="0 0 62.31 83.28" style="enable-background:new 0 0 62.31 83.28;" xml:space="preserve">
<style type="text/css">
	.st0{fill:#6D6E6E;}
</style>
<g id="XMLID_00000109012564606100745200000015619979710550185912_">
	<g>
		<path id="XMLID_00000066509979340554352490000013484540204057549998_" class="st0" d="M33.54,51.18
			c-1.05-2.82-3.16-7.44-10.39-10.54H8.85c2.32,1.24,6.14,2.84,8.49,6.71c0,0,3.51,5.09,2.76,11.86c-0.11,1.44-0.52,6.76-4.59,11.29
			c-1.55,1.6-5.11,5.63-15.52,7.03c3.45,0,12.71,0.33,17.79-0.63c4.96-1.02,10.03-2.67,13.92-8.91
			C31.71,67.99,36.67,60.9,33.54,51.18z"/>
		<path id="XMLID_00000143618969889335522140000003289083830797063813_" class="st0" d="M28.51,13.2
			c-1.24-1.44-4.74-5.81-13.54-7.07c-1.71-0.18-3.74-0.39-7.75-0.38C5.22,5.78,2.33,5.77,0.33,5.77c0.76,0.15,7.5,1.52,10.99,4.64
			c0,0,0,0,0,0c0.28,0.23,0.56,0.47,0.83,0.73c0.55,0.48,4.6,3.58,5.36,11.01c0.06,1.8,0.64,7.95-4.41,13.55
			c-1.09,1.09-1.9,1.84-3.88,3.08h14.41c1.45-0.62,3.29-2.11,4.85-4.29c1.05-1.57,3.45-4.93,3.43-10.62
			C31.85,20.97,32.1,18.28,28.51,13.2z"/>
		<path id="XMLID_00000153669156010421807440000011733146885817945495_" class="st0" d="M56.29,10.02
			c-1.22-1.74-4.61-6.46-12.15-8.62c-1.05-0.33-4.7-1.3-10.36-1.4c-2.12,0-6.11,0-8.96,0c0.42,0.1,7.7,1.78,10.61,3.85c0,0,0,0,0,0
			c1.04,0.61,2.05,1.31,3,2.13c1.8,1.8,6.59,6.09,6.46,15.36c-0.06,1.02-0.17,7.81-4.59,12.7c-1.2,1.36-2.54,2.88-5.87,4.74h14.3
			c2.88-1.24,8.08-5.24,9.72-12.14C58.91,24.71,60.79,17.56,56.29,10.02z"/>
		<path id="XMLID_00000054259009168069841440000004317915709794290602_" class="st0" d="M60.6,51.06
			c-0.74-1.49-3.09-7.32-11.11-10.42H35.23c2.87,1.24,7.24,3.57,10.03,8.7c2.24,4.45,4.49,11.66,0.59,20.65
			c-0.85,1.84-3.35,6.69-9.12,9.67c-0.27,0.15-0.77,0.43-1.49,0.77c-3.33,1.87-9.43,2.74-10.12,2.84c4.28,0,8.62,0.01,8.62,0.01
			s9.15,0.05,14.65-2.35c5.5-2.4,10.55-6,12.98-14.01C62.03,64.1,63.44,58.23,60.6,51.06z"/>
	</g>
</g>
</svg>
