<?xml version="1.0" encoding="utf-8"?>
<!-- Generator: Adobe Illustrator 25.4.1, SVG Export Plug-In . SVG Version: 6.00 Build 0)  -->
<svg version="1.1" id="Capa_1" xmlns="http://www.w3.org/2000/svg" xmlns:xlink="http://www.w3.org/1999/xlink" x="0px" y="0px"
	 viewBox="0 0 1080 1080" style="enable-background:new 0 0 1080 1080;" xml:space="preserve">
<style type="text/css">
	.st0{fill:#FFFFFF;}
</style>
<path class="st0" d="M443.36,261.5c64.67-9.76,129.12-9.55,193.79,0c1.73-3.86,3.28-7.65,5.08-11.32
	c5.16-10.49,10.38-20.96,15.65-31.39c1.48-2.93,2.1-3.08,5.26-2.53c25.02,4.37,49.71,10.13,74.1,17.22
	c32.63,9.48,64.37,21.35,95.29,35.4c1.47,0.67,2.61,1.56,3.55,2.95c16,23.81,30.85,48.31,44.34,73.64
	c11.85,22.24,22.54,45.02,32.07,68.34c9.85,24.11,18.35,48.69,25.44,73.75c7.2,25.45,13.12,51.19,17.09,77.35
	c1.91,12.57,3.6,25.19,5.05,37.82c1.14,9.92,1.89,19.88,2.55,29.84c0.62,9.34,1,18.7,1.27,28.06c0.28,9.37,0.5,18.75,0.4,28.13
	c-0.1,9.15-0.62,18.29-1,27.44c-0.24,5.78-0.48,11.57-0.88,17.34c-0.48,6.92-1.13,13.83-1.69,20.74c-0.14,1.69-1.32,2.56-2.53,3.42
	c-5.15,3.67-10.27,7.39-15.46,10.99c-18.28,12.69-37.05,24.6-56.43,35.56c-34.56,19.56-70.51,36.07-107.93,49.35
	c-9.63,3.42-19.35,6.57-29.04,9.82c-3.42,1.15-3.92,1.01-6.07-2.01c-12.15-17.12-23.43-34.8-33.61-53.16
	c-2.6-4.7-5.14-9.43-7.71-14.15c-0.15-0.28-0.3-0.56-0.43-0.85c-1.14-2.56-0.66-3.92,1.92-5.01c2.33-0.99,4.71-1.84,7.06-2.78
	c19.61-7.8,38.54-17.01,56.79-27.62c0.45-0.26,0.94-0.5,1.35-0.82c1.73-1.36,1.94-3.2,0.29-4.55c-4.33-3.53-8.75-6.94-13.16-10.36
	c-1.28-0.99-2.57-0.42-3.86,0.14c-8.21,3.57-16.36,7.28-24.66,10.63c-26.33,10.63-53.37,19-81.12,25.06
	c-17.07,3.73-34.28,6.7-51.68,8.43c-7.32,0.73-14.65,1.46-21.99,1.87c-10.61,0.58-21.23,1.12-31.85,1.2
	c-9.68,0.08-19.38-0.19-29.05-0.8c-28.82-1.81-57.32-5.91-85.42-12.59c-28.14-6.69-55.57-15.56-82.22-26.8
	c-5.34-2.25-10.67-4.51-15.93-6.94c-1.88-0.87-3.29-0.78-4.88,0.52c-3.67,3-7.46,5.85-11.17,8.8c-2.97,2.36-2.88,4.15,0.37,6.02
	c16.19,9.28,32.83,17.68,50.03,24.93c4.56,1.92,9.17,3.73,13.77,5.57c3.03,1.21,3.64,2.46,2.1,5.3
	c-4.96,9.17-9.88,18.37-15.07,27.41c-8.09,14.09-17.12,27.58-26.66,40.73c-1.97,2.71-2.41,2.9-5.52,1.93
	c-26.97-8.45-53.39-18.36-79.19-29.93c-38.47-17.26-75.02-37.94-109.8-61.76c-6.78-4.65-13.4-9.53-20.13-14.25
	c-1.6-1.12-2.35-2.44-2.47-4.44c-0.59-9.66-1.28-19.3-2.01-28.95c-1.44-19.14-1.35-38.32-1.22-57.5c0.06-8.53,0.32-17.06,0.85-25.57
	c1.12-18.05,2.62-36.07,5.02-54c4.17-31.24,10.35-62.06,18.64-92.47c9.69-35.55,22.19-70.08,37.25-103.69
	c11.9-26.56,25.13-52.46,40.12-77.42c8.3-13.82,17.07-27.36,25.59-41.05c1.16-1.87,2.7-3.04,4.72-3.96
	c24.28-11.06,49.11-20.7,74.48-28.92c23.16-7.5,46.63-13.85,70.48-18.75c7.83-1.61,15.7-3.07,23.55-4.58
	c3.2-0.62,3.76-0.37,5.33,2.42c7.36,13.04,13.98,26.45,19.97,40.18C442.51,259.64,442.86,260.4,443.36,261.5z M757.64,569.27
	c0.21-9.18-2.17-21.32-5.92-30.84c-7.84-19.87-20.65-35.34-40.1-44.85c-13.51-6.61-27.76-8.44-42.46-5.85
	c-17.29,3.05-31.5,11.8-42.69,25.17c-17.46,20.87-23.64,45.1-20.42,71.92c1.85,15.4,7.45,29.34,16.52,41.86
	c8.87,12.23,20.27,21.32,34.42,26.81c7.94,3.08,16.15,4.5,24.7,4.46c7.89-0.04,15.51-1.25,22.91-3.89
	c15.86-5.65,28.16-15.88,37.51-29.7C752.84,608.51,757.57,590.84,757.64,569.27z M402.93,658.04c8.81,0.4,22.02-4.06,30.11-8.63
	c16.51-9.32,28.02-23.03,35.38-40.34c6.4-15.05,8.42-30.78,6.83-46.99c-2.23-22.75-11.39-42.13-28.63-57.35
	c-14.93-13.18-32.47-19.29-52.37-17.86c-19.1,1.37-35.03,9.74-47.72,23.81c-19,21.08-25.79,46.25-22.41,74.07
	c2.49,20.48,11.08,38.31,26.14,52.74C364.01,650.67,380.25,657.83,402.93,658.04z"/>
</svg>
