<?xml version="1.0" encoding="utf-8"?>
<!-- Generator: Adobe Illustrator 25.2.1, SVG Export Plug-In . SVG Version: 6.00 Build 0)  -->
<svg version="1.1" id="Capa_1" xmlns="http://www.w3.org/2000/svg" xmlns:xlink="http://www.w3.org/1999/xlink" x="0px" y="0px"
	 viewBox="0 0 171.93 40.91" style="enable-background:new 0 0 171.93 40.91;" xml:space="preserve">
<style type="text/css">
	.st0{fill:#FFFFFF;}
</style>
<g id="XMLID_00000052806940456017827630000004577162132330285219_">
	<path id="XMLID_00000041988594052149938260000008634696042682865585_" class="st0" d="M1339.85,206.45
		c-4.98,0-9.61,1.54-13.49,4.02h26.98C1349.47,208,1344.83,206.45,1339.85,206.45z"/>
	<path id="XMLID_00000057143941968746589550000005094406979887171992_" class="st0" d="M1360.19,217.31v27.07
		c2.48-3.88,4.05-8.53,4.05-13.54S1362.67,221.19,1360.19,217.31z"/>
	<path id="XMLID_00000147904530849247200820000008807496191060836502_" class="st0" d="M1339.83,210.28
		c-10.51,0-19.2,7.88-20.43,18.06v-11.04c-2.7,3.88-4.05,8.53-4.05,13.54s1.35,9.65,4.05,13.54V233.3c0.58,4.7,2.78,8.92,5.86,12.1
		v-29.06h13.73c-7.64,0.46-13.73,6.79-13.73,14.54c0,7.72,6.04,14.03,13.63,14.54h-13.5c3.29,3.19,7.68,5.4,12.56,5.86h-11.67
		c3.89,2.7,8.56,4.08,13.58,4.08c5.02,0,9.69-1.38,13.58-4.08h-11.67c4.88-0.46,9.27-2.67,12.56-5.86h-13.48
		c7.02-0.47,12.68-5.9,13.49-12.82v12.75c3.83-3.72,6.03-8.84,6.03-14.5C1360.36,219.48,1351.18,210.28,1339.83,210.28z
		 M1340.74,216.34h13.59v12.83C1353.51,222.21,1347.81,216.76,1340.74,216.34z"/>
	<path id="XMLID_00000046310286334186527450000007118587687796400536_" class="st0" d="M1354.43,245.45v-0.11
		c-0.04,0.04-0.07,0.07-0.11,0.11H1354.43z"/>
	<path id="XMLID_00000072243394964487340140000007780031166765444260_" class="st0" d="M1325.33,245.45h0.06
		c-0.02-0.02-0.04-0.04-0.06-0.06V245.45z"/>
</g>
<g>
	<g id="XMLID_00000109012564606100745200000015619979710550185912_">
		<path id="XMLID_00000026844278818164662590000000611405809587401899_" class="st0" d="M16.48,25.14
			c-0.52-1.39-1.55-3.65-5.11-5.18H4.35c1.14,0.61,3.02,1.4,4.17,3.3c0,0,1.72,2.5,1.36,5.82c-0.05,0.71-0.26,3.32-2.25,5.54
			C6.87,35.42,5.12,37.4,0,38.09c1.7,0,6.24,0.16,8.74-0.31c2.44-0.5,4.93-1.31,6.84-4.38C15.58,33.4,18.02,29.92,16.48,25.14z"/>
		<path id="XMLID_00000060027919744588741180000010257633878593845683_" class="st0" d="M14,6.48c-0.61-0.71-2.33-2.86-6.65-3.47
			C6.51,2.92,5.51,2.82,3.54,2.83c-0.98,0.01-2.4,0.01-3.38,0.01c0.37,0.07,3.68,0.75,5.4,2.28c0,0,0,0,0,0
			C5.7,5.23,5.84,5.34,5.97,5.47c0.27,0.24,2.26,1.76,2.63,5.41c0.03,0.88,0.32,3.9-2.17,6.66c-0.53,0.53-0.93,0.9-1.9,1.51h7.08
			c0.71-0.3,1.62-1.04,2.38-2.11c0.52-0.77,1.7-2.42,1.68-5.22C15.65,10.3,15.77,8.98,14,6.48z"/>
		<path id="XMLID_00000018214567585127066650000014997724876958134145_" class="st0" d="M27.65,4.92c-0.6-0.85-2.27-3.17-5.97-4.23
			C21.17,0.53,19.37,0.05,16.59,0c-1.04,0-3,0-4.4,0c0.21,0.05,3.78,0.88,5.21,1.89c0,0,0,0,0,0c0.51,0.3,1.01,0.64,1.47,1.05
			c0.88,0.88,3.24,2.99,3.18,7.55c-0.03,0.5-0.08,3.84-2.25,6.24c-0.59,0.67-1.25,1.41-2.89,2.33h7.02
			c1.41-0.61,3.97-2.58,4.78-5.96C28.94,12.14,29.86,8.63,27.65,4.92z"/>
		<path id="XMLID_00000173142177027021972850000012047310806357506704_" class="st0" d="M29.77,25.08
			c-0.36-0.73-1.52-3.59-5.46-5.12h-7c1.41,0.61,3.55,1.76,4.93,4.28c1.1,2.18,2.21,5.73,0.29,10.14c-0.42,0.9-1.65,3.29-4.48,4.75
			c-0.13,0.07-0.38,0.21-0.73,0.38c-1.63,0.92-4.63,1.35-4.97,1.39c2.1,0,4.23,0,4.23,0s4.5,0.02,7.2-1.16
			c2.7-1.18,5.18-2.95,6.38-6.88C30.47,31.49,31.17,28.61,29.77,25.08z"/>
	</g>
	<g id="XMLID_00000086658873911505621390000010333012473747664000_">
		<path id="XMLID_00000085957423130970821190000015100354373863855490_" class="st0" d="M68.36,31.44c-5.09,0-8.66-3.64-8.66-9.19
			c0-5.52,3.45-9.19,8.6-9.19c5.24,0,8.35,3.82,8.11,9.77H62.6c-0.03,3.73,2.44,6.23,5.8,6.23c2.62,0,4.56-1.51,5.15-4.07l2.44,1.11
			C74.9,29.47,72.06,31.44,68.36,31.44z M62.69,20.62h10.85c-0.25-3.18-2.25-5.18-5.27-5.18C65.22,15.44,62.97,17.48,62.69,20.62z"
			/>
		<path id="XMLID_00000081610813341818492850000004050832605057694358_" class="st0" d="M145.3,31.47c-5.12,0-8.57-3.67-8.57-9.19
			c0-5.55,3.45-9.22,8.57-9.22c5.09,0,8.54,3.67,8.54,9.22C153.84,27.8,150.38,31.47,145.3,31.47z M145.3,29.04
			c3.36,0,5.7-2.68,5.7-6.75c0-4.1-2.34-6.78-5.7-6.78c-3.42,0-5.77,2.68-5.77,6.78C139.53,26.36,141.87,29.04,145.3,29.04z"/>
		<path id="XMLID_00000011720191312951448890000017329128856115471030_" class="st0" d="M154.58,31.07l7.06-9.06l-6.66-8.54h3.27
			l5.06,6.51l4.96-6.51h3.14l-6.57,8.48l7.09,9.13h-3.24l-5.52-7.09l-5.46,7.09H154.58z"/>
		<path id="XMLID_00000092444976628684598030000001187022558388527258_" class="st0" d="M53.04,19.48c2.19-0.86,3.51-2.74,3.51-5.12
			c0-1.67-0.68-2.99-1.88-3.91c-1.23-1.02-3.02-1.51-5.64-1.51h-8.87v1.22v1.08v0.75v2.38c0,2.28,0.68,3.6,3.03,4.07
			c-0.03-0.24,0.01-0.5,0.01-0.77v-5.67v-0.61h5.09c1.88,0,3.11,0.29,3.92,0.88c0.83,0.55,1.26,1.41,1.26,2.52
			c0,1.14-0.46,2.04-1.26,2.65c-0.83,0.65-2.03,0.96-3.98,0.96H43.2v2.74h5.7c2,0,3.3,0.21,4.16,0.83c0.86,0.62,1.3,1.48,1.3,2.68
			s-0.46,2.15-1.33,2.79c-0.96,0.68-2.4,1-4.56,1H43.2v-0.11v-2.63v-3.79c0-0.27-0.04-0.54-0.01-0.77
			c-2.35,0.47-3.03,1.78-3.03,4.07v0.5v2.63v1.03v1.83h9.18c2.74,0,4.59-0.6,5.92-1.65c1.39-1.08,2.16-2.71,2.16-4.62
			C57.42,22.03,55.69,20.13,53.04,19.48z"/>
		<path id="XMLID_00000013178341010798863050000008422379366724236421_" class="st0" d="M121.85,19.48
			c2.19-0.86,3.51-2.74,3.51-5.12c0-1.67-0.68-2.99-1.88-3.91c-1.23-1.02-3.02-1.51-5.64-1.51h-8.87v1.22v1.08v0.75v2.38
			c0,2.28,0.68,3.6,3.03,4.07c-0.03-0.24,0.01-0.5,0.01-0.77v-5.67v-0.61h5.09c1.88,0,3.11,0.29,3.92,0.88
			c0.83,0.55,1.26,1.41,1.26,2.52c0,1.14-0.46,2.04-1.26,2.65c-0.83,0.65-2.03,0.96-3.98,0.96h-5.03v2.74h5.7
			c2,0,3.3,0.21,4.16,0.83c0.86,0.62,1.3,1.48,1.3,2.68s-0.46,2.15-1.33,2.79c-0.96,0.68-2.4,1-4.56,1h-5.27v-0.11v-2.63v-3.79
			c0-0.27-0.04-0.54-0.01-0.77c-2.35,0.47-3.03,1.78-3.03,4.07v0.5v2.63v1.03v1.83h9.18c2.74,0,4.59-0.6,5.92-1.65
			c1.39-1.08,2.16-2.71,2.16-4.62C126.23,22.03,124.5,20.13,121.85,19.48z"/>
		<path id="XMLID_00000103242596506311550960000014619045155679267490_" class="st0" d="M130.1,31.07V8.23h2.74v22.84H130.1z"/>
		<path id="XMLID_00000007424027237525084490000009506443983590262175_" class="st0" d="M103.94,28.8c-0.65,0-1.13-0.17-1.44-0.38
			c-0.31-0.21-0.52-0.52-0.61-0.88c-0.09-0.36-0.15-0.89-0.15-1.52v-4.61V20.8v-5.1h3.65v-2.13h-3.65V8.3l-2.74,2.16v3.11h-3.04
			v2.13h3.04v5.1v0.61v5.16c0,1.72,0.35,2.97,1.05,3.62c0.7,0.65,1.78,1.04,3.24,1.04h2.41V28.8H103.94z"/>
		<path id="XMLID_00000115495407021079165730000000417250339775672199_" class="st0" d="M94.16,31.07h-2.74
			c-0.15-0.77-0.22-1.63-0.25-3.02c-1.42,2.28-3.51,3.42-6.26,3.42c-3.55,0-5.92-1.97-5.92-5.06c0-3.11,2.31-5.06,7.37-5.8
			l4.81-0.65V19.2c0-2.4-1.51-3.7-4.25-3.7c-2.74,0-4.56,1.29-5.09,3.73l-2.28-1.6c1.17-2.99,3.76-4.56,7.46-4.56
			c4.35,0,6.81,2.16,6.81,5.98v7.52C93.82,28.48,93.94,29.96,94.16,31.07z M85.43,29.16c2.99,0,5.73-2.03,5.73-5.86v-1.08
			l-4.01,0.52c-3.73,0.55-5.36,1.6-5.36,3.51C81.8,28.02,83.18,29.16,85.43,29.16z"/>
	</g>
</g>
</svg>
