<?xml version="1.0" encoding="utf-8"?>
<!-- Generator: Adobe Illustrator 25.2.1, SVG Export Plug-In . SVG Version: 6.00 Build 0)  -->
<svg version="1.1" id="Capa_1" xmlns="http://www.w3.org/2000/svg" xmlns:xlink="http://www.w3.org/1999/xlink" x="0px" y="0px"
	 viewBox="0 0 50 50" style="enable-background:new 0 0 50 50;" xml:space="preserve">
<style type="text/css">
	.st0{fill:#FFFFFF;}
</style>
<path id="XMLID_00000178168446462585037220000017496109480535630260_" class="st0" d="M49.67,24.97c0-6.32-5.16-11.52-10.94-12.25
	h10.62c0-6.54-5.34-12.24-11.92-12.24c-0.02,0-0.07,0.01-0.07,0.01v12.15v0.09v10.64c-0.72-5.57-5.18-9.98-10.79-10.64h10.79
	c0-6.54-5.53-12.32-12.35-12.32c-6.23,0-11.38,4.83-12.22,10.65V0.48c0,0-0.37-0.01-0.4-0.01c-6.48,0-12.06,5.71-12.06,12.24h10.96
	C5.05,13.44,0.47,18.65,0.47,24.98c0,6.47,4.8,11.78,11.25,12.31H0.33c0,6.54,5.58,12.27,12.06,12.27c0.02,0,0.4,0.02,0.4,0.02
	V38.95c0.84,5.82,6.02,10.66,12.28,10.66c6.31,0,11.51-4.91,12.29-10.79v10.77c0,0,0.05-0.02,0.07-0.02
	c6.58,0,11.92-5.74,11.92-12.27H38C44.07,36.93,49.67,31.55,49.67,24.97z M23.61,12.72c-5.71,0.68-10.22,5.21-10.83,10.92V12.72
	H23.61z M12.79,37.28V26.25c0.66,6.19,5.91,11.01,12.3,11.01c6.29,0,11.48-4.68,12.27-10.73v10.75H12.79z"/>
</svg>
