<?xml version="1.0" encoding="utf-8"?>
<!-- Generator: Adobe Illustrator 25.2.1, SVG Export Plug-In . SVG Version: 6.00 Build 0)  -->
<svg version="1.1" id="Capa_1" xmlns="http://www.w3.org/2000/svg" xmlns:xlink="http://www.w3.org/1999/xlink" x="0px" y="0px"
	 viewBox="0 0 50 50" style="enable-background:new 0 0 50 50;" xml:space="preserve">
<style type="text/css">
	.st0{fill:#FDFDFD;}
</style>
<path id="XMLID_00000119103597945363953940000004931370963558976404_" class="st0" d="M39.14,41.05c1.34-2.37,2.11-5.11,2.11-8.03
	c0-8.63-6.69-15.7-15.17-16.31h15.38V0.54c0,0-0.08-0.09-0.11-0.09c-9.02,0-16.4,7.45-16.42,16.22c-0.01,0-0.02,0-0.03,0
	c-0.03,0-0.11,0-0.11,0V0.49c0,0,0.03,0,0.01,0c-5.77,0-10.84,2.99-13.75,7.51V0.54c0,0-0.18,0.16-0.2,0.16
	c-4.52,0-8.35,3.61-8.35,8.34h7.93c-1.26,2.32-1.98,4.98-1.98,7.8c0,9.03,7.32,16.35,16.35,16.36v0.19h-16v15.98
	c0,0,0,0.19,0.03,0.19c7.85,0,14.39-5.57,15.98-12.79v12.6c0,0,0.09,0,0.11,0c6,0,11.24-3.23,14.09-8.05v8.24
	c0,0,0.17-0.16,0.18-0.16c4.52,0,8.34-3.38,8.34-8.34H39.14z"/>
</svg>
