<?xml version="1.0" encoding="utf-8"?>
<!-- Generator: Adobe Illustrator 25.4.1, SVG Export Plug-In . SVG Version: 6.00 Build 0)  -->
<svg version="1.1" id="Capa_1" xmlns="http://www.w3.org/2000/svg" xmlns:xlink="http://www.w3.org/1999/xlink" x="0px" y="0px"
	 viewBox="0 0 1080 1080" style="enable-background:new 0 0 1080 1080;" xml:space="preserve">
<style type="text/css">
	.st0{fill:#FFFFFF;}
</style>
<g>
	<path class="st0" d="M346.19,830.73L346.19,830.73c-22.97,0-41.59-18.62-41.59-41.59v-471.4c0-22.97,18.62-41.59,41.59-41.59h0
		c22.97,0,41.59,18.62,41.59,41.59v471.4C387.79,812.1,369.16,830.73,346.19,830.73z"/>
	<path class="st0" d="M734.41,830.73L734.41,830.73c-22.97,0-41.59-18.62-41.59-41.59v-471.4c0-22.97,18.62-41.59,41.59-41.59h0
		c22.97,0,41.59,18.62,41.59,41.59v471.4C776,812.1,757.38,830.73,734.41,830.73z"/>
	<path class="st0" d="M540.3,941.64L540.3,941.64c-22.97,0-41.59-18.62-41.59-41.59V179.08c0-22.97,18.62-41.59,41.59-41.59h0
		c22.97,0,41.59,18.62,41.59,41.59v720.97C581.89,923.02,563.27,941.64,540.3,941.64z"/>
</g>
</svg>
