<?xml version="1.0" encoding="utf-8"?>
<!-- Generator: Adobe Illustrator 25.3.1, SVG Export Plug-In . SVG Version: 6.00 Build 0)  -->
<svg version="1.1" id="Capa_1" xmlns="http://www.w3.org/2000/svg" xmlns:xlink="http://www.w3.org/1999/xlink" x="0px" y="0px"
	 viewBox="0 0 40 40" style="enable-background:new 0 0 40 40;" xml:space="preserve">
<style type="text/css">
	.st0{fill:#FFFFFF;}
</style>
<g id="XMLID_00000052806940456017827630000004577162132330285219_">
	<path id="XMLID_00000041988594052149938260000008634696042682865585_" class="st0" d="M1344.5,206c-5,0-9.6,1.5-13.5,4h27
		C1354.2,207.5,1349.5,206,1344.5,206z"/>
	<path id="XMLID_00000057143941968746589550000005094406979887171992_" class="st0" d="M1364.9,216.9v27.1c2.5-3.9,4.1-8.5,4.1-13.5
		S1367.4,220.7,1364.9,216.9z"/>
	<path id="XMLID_00000147904530849247200820000008807496191060836502_" class="st0" d="M1344.5,209.8c-10.5,0-19.2,7.9-20.4,18.1
		v-11c-2.7,3.9-4.1,8.5-4.1,13.5s1.3,9.6,4.1,13.5v-11.1c0.6,4.7,2.8,8.9,5.9,12.1v-29.1h13.7c-7.6,0.5-13.7,6.8-13.7,14.5
		c0,7.7,6,14,13.6,14.5h-13.5c3.3,3.2,7.7,5.4,12.6,5.9H1331c3.9,2.7,8.6,4.1,13.6,4.1c5,0,9.7-1.4,13.6-4.1h-11.7
		c4.9-0.5,9.3-2.7,12.6-5.9h-13.5c7-0.5,12.7-5.9,13.5-12.8v12.8c3.8-3.7,6-8.8,6-14.5C1365.1,219,1355.9,209.8,1344.5,209.8z
		 M1345.4,215.9h13.6v12.8C1358.2,221.8,1352.5,216.3,1345.4,215.9z"/>
	<path id="XMLID_00000046310286334186527450000007118587687796400536_" class="st0" d="M1359.1,245v-0.1c0,0-0.1,0.1-0.1,0.1H1359.1
		z"/>
	<path id="XMLID_00000072243394964487340140000007780031166765444260_" class="st0" d="M1330,245L1330,245
		C1330.1,245,1330,245,1330,245L1330,245z"/>
</g>
<g>
	<g id="XMLID_00000109012564606100745200000015619979710550185912_">
		<path id="XMLID_00000026844278818164662590000000611405809587401899_" class="st0" d="M21.1,24.2c-0.5-1.3-1.4-3.3-4.6-4.7h-6.3
			c1,0.5,2.7,1.3,3.8,3c0,0,1.5,2.3,1.2,5.2c0,0.6-0.2,3-2,5c-0.7,0.7-2.3,2.5-6.9,3.1c1.5,0,5.6,0.1,7.9-0.3
			c2.2-0.5,4.4-1.2,6.2-3.9C20.2,31.7,22.4,28.5,21.1,24.2z"/>
		<path id="XMLID_00000060027919744588741180000010257633878593845683_" class="st0" d="M18.8,7.4c-0.5-0.6-2.1-2.6-6-3.1
			c-0.8-0.1-1.7-0.2-3.4-0.2c-0.9,0-2.2,0-3,0c0.3,0.1,3.3,0.7,4.9,2.1l0,0c0.1,0.1,0.3,0.2,0.4,0.3c0.2,0.2,2,1.6,2.4,4.9
			c0,0.8,0.3,3.5-2,6c-0.5,0.5-0.8,0.8-1.7,1.4h6.4c0.6-0.3,1.5-0.9,2.1-1.9c0.5-0.7,1.5-2.2,1.5-4.7C20.3,10.9,20.4,9.7,18.8,7.4z"
			/>
		<path id="XMLID_00000018214567585127066650000014997724876958134145_" class="st0" d="M31.1,6c-0.5-0.8-2-2.9-5.4-3.8
			c-0.5-0.1-2.1-0.6-4.6-0.6c-0.9,0-2.7,0-4,0c0.2,0,3.4,0.8,4.7,1.7l0,0c0.5,0.3,0.9,0.6,1.3,0.9C24,5,26.1,6.9,26.1,11
			c0,0.5-0.1,3.5-2,5.6c-0.5,0.6-1.1,1.3-2.6,2.1h6.3c1.3-0.5,3.6-2.3,4.3-5.4C32.3,12.5,33.1,9.3,31.1,6z"/>
		<path id="XMLID_00000173142177027021972850000012047310806357506704_" class="st0" d="M33,24.2c-0.3-0.7-1.4-3.2-4.9-4.6h-6.3
			c1.3,0.5,3.2,1.6,4.4,3.9c1,2,2,5.2,0.3,9.1c-0.4,0.8-1.5,3-4,4.3c-0.1,0.1-0.3,0.2-0.7,0.3c-1.5,0.8-4.2,1.2-4.5,1.3
			c1.9,0,3.8,0,3.8,0s4.1,0,6.5-1c2.4-1.1,4.7-2.7,5.7-6.2C33.7,29.9,34.3,27.3,33,24.2z"/>
	</g>
</g>
</svg>
